<?xml version="1.0" encoding="UTF-8" standalone="no"?>
<svg viewBox="0 0 744.09448 752.35999" xmlns="http://www.w3.org/2000/svg">
<defs>
<linearGradient gradientUnits="userSpaceOnUse" id="linearGradient3675-8" x1="386.45111" x2="257.67371" y1="598.0167" y2="685.47341">
<stop offset="0" stop-color="#eeeeec"/>
<stop offset="1" stop-color="#f57900"/>
</linearGradient>
</defs>
<g transform="translate(0,-300.00217)">
<g fill="#f59000">
<path d="m737.5625,1196.25c-58.71795.848-117.4719,20.5009-165.6875,59.75-88.90835,72.3744-114.75832,189.3071-72.1875,287.1562-87.66441,84.1847-217.70614,211.9241-228,221.9063-15.16596,14.7068-300.79149,288.1877-299.71875,293.125s305.57381-181.5742 321.8125-191.3437c15.84622-9.5335 298.26371-176.3084 326-198.0313 91.92239,46.1707 207.80625,37.2764 291.71875-31.0313 110.2071-89.7123 123.5021-247.9206 29.71875-353.3437-52.75315-59.3005-128.16174-89.2778-203.65625-88.1875z" fill="#f59000" transform="matrix(.39843,.01512,-.01512,.39843,357.13103,-167.33161)"/>
</g>
<g fill="#e88b40">
<path d="m-136.65625,1438.1562c-9.56447.145-19.27569,1.7081-28.84375,4.8438-51.02967,16.7239-78.81769,71.6578-62.09375,122.6875 12.97275,39.5837 48.92237,65.1826 88.21875,66.875 17.69047,42.1829 47.78688,111.4356 50.03125,116.6875 3.14921,7.3692 61.20159,145.6432 63.125,146s-22.24295-131.6126-23.46875-138.625-22.41329-134.4433-25.5625-141.8125c-.88224-.1614-2.00201-.3793-2.96875-.5625 33.37622-24.1155 48.91596-67.9029 35.40625-109.125-13.5882-41.4616-52.39771-67.5968-93.84375-66.9688z" fill="#e88b40" transform="matrix(.33792,-.04684,.04684,.33792,205.41563,-32.9589)"/>
</g>
<g fill="#fcaf3e">
<path d="m-644.125,1893.625c-97.58408,0-176.6875,79.1347-176.6875,176.7188s79.10342,176.6874 176.6875,176.6874c75.69179,0 140.2417-47.6054 165.40625-114.5 82.92207-6.6906 219.53161-19.4739 229.84375-20.375 14.50761-1.2676 286.10778-23.2555 287.8125-26.375s-239.8846-36.0856-252.6875-37.9374-244.83614-37.3927-259.34375-36.125c-.82809,1.5243-1.73172,3.1997-2.65625,4.875-22.73767-71.3113-89.52559-122.9688-168.375-122.9688z" fill="#fcaf3e" transform="matrix(.36513,-.03501,.03501,.36513,234.58309,-90.10454)"/>
</g>
<g fill="#c2650c">
<path d="m-7.625,1948.7812c-4.76178-1.189 35.47664,333.0633 37.46875,350.8126 1.78383,15.8934 28.80317,275.8629 39.28125,343.6874-88.4587,54.9222-134.9667,162.8469-107.28125,268.875 34.03934,130.3619 167.32561,208.4456 297.6875,174.4063s208.44559-167.2944 174.40625-297.6563c-25.7911-98.7732-108.5769-167.5319-203.875-180.25-38.32235-109.1191-97.48546-271.7283-102.0625-284.5624-6.75406-18.9386-130.86314-374.1235-135.625-375.3126z" fill="#c2650c" transform="matrix(.32097,.01628,-.01628,.32097,340.68257,46.79253)"/>
</g>
<g fill="#e8b260">
<path d="m141.9375,2076.2188c-.23389-.02-.3735.0004-.40625.031-1.04789.9861 87.7751,44.0223 92.46875,46.3438s89.50837,45.1646 95.25,46.5c.48627-.4599 1.11891-1.0296 1.65625-1.5313-.20213,30.2878 19.01175,58.5624 49.34375,68.4687 37.54895,12.2634 77.9241-8.2323 90.1875-45.7812s-8.2323-77.9554-45.78125-90.2188c-29.1197-9.5104-59.94028.7125-78.03125,23.2813-32.7176-7.8433-86.90716-20.0793-91-21.0313-5.5622-1.2936-106.43701-25.4517-113.6875-26.0624z" fill="#e8b260" transform="matrix(.34115,1.13085402014823e-008,-1.13085402014823e-008,.34115,323.88363,-21.26085)"/>
</g>
<path d="m345.71429,268.07648c0,70.21906-56.9238,127.14286-127.14286,127.14286s-127.14286-56.9238-127.14286-127.14286 56.92379-127.14286 127.14286-127.14286 127.14286,56.92379 127.14286,127.14286z" fill="#f57900" transform="matrix(.67435,0,0,.67463,164.07668,470.98288)"/>
<path d="m386.45114,651.00966c0,41.80681-15.34552-32.65413-57.17364-32.65413s-94.29944,74.46094-94.29944,32.65413 33.90847-75.69799 75.73654-75.69799 75.73654,33.8911 75.73654,75.69799z" fill="url(#linearGradient3675-8)"/>
</g>
</svg>
